 <svg version="1.0" xmlns="http://www.w3.org/2000/svg" width="700.000000pt" height="700.000000pt" viewBox="0 0 700.000000 700.000000" preserveAspectRatio="xMidYMid meet">
<metadata>
Created by potrace 1.12, written by Peter Selinger 2001-2015
</metadata>
<g transform="translate(0.000000,700.000000) scale(0.100000,-0.100000)" fill="#000000" stroke="none">
<path d="M3425 4520 c-16 -4 -62 -8 -102 -9 -39 0 -84 -6 -100 -12 -26 -11
-68 -20 -243 -50 -36 -6 -80 -17 -98 -25 -18 -8 -48 -14 -66 -14 -19 0 -47 -7
-62 -15 -16 -8 -45 -15 -64 -15 -19 -1 -46 -7 -60 -15 -14 -8 -44 -14 -66 -15
-24 0 -47 -6 -54 -15 -7 -8 -25 -15 -41 -15 -26 0 -80 -19 -119 -41 -8 -5 -29
-16 -47 -25 -42 -21 -138 -114 -197 -192 -26 -35 -56 -71 -66 -80 -9 -9 -29
-35 -42 -57 -14 -22 -35 -49 -47 -59 -11 -11 -21 -23 -21 -27 0 -5 -27 -44
-60 -88 -33 -44 -60 -82 -60 -85 0 -3 -13 -25 -30 -49 -41 -62 -39 -69 18 -63
139 15 295 26 447 31 94 3 188 10 210 15 22 5 92 10 155 10 63 1 156 6 205 11
50 5 169 13 265 17 164 7 177 8 208 31 17 14 32 30 32 35 0 6 7 24 15 39 8 15
17 45 21 65 4 20 10 42 14 47 4 6 11 26 15 45 4 19 14 44 21 55 8 11 14 33 14
50 1 16 7 41 15 55 8 14 14 35 15 47 0 12 6 34 14 50 21 43 37 93 46 141 4 24
12 48 18 54 7 7 12 24 12 39 0 15 7 32 15 39 9 8 15 30 15 56 l0 44 -57 -1
c-32 -1 -71 -5 -88 -9z"></path>
<path d="M3758 4440 c-11 -7 -18 -23 -18 -40 0 -16 -6 -44 -14 -62 -7 -18 -19
-53 -25 -78 -29 -110 -33 -126 -39 -140 -3 -8 -11 -37 -18 -65 -24 -100 -36
-141 -50 -172 -8 -17 -14 -42 -14 -56 0 -13 -6 -40 -14 -58 -8 -19 -17 -60
-21 -92 l-7 -57 38 -16 c26 -12 89 -20 194 -25 85 -5 187 -13 225 -18 39 -6
102 -10 142 -10 39 -1 84 -6 100 -12 15 -6 61 -13 101 -15 l72 -4 0 94 c0 52
-5 107 -10 122 -6 15 -14 64 -17 108 -3 45 -12 98 -20 120 -7 21 -13 69 -13
105 0 44 -5 74 -15 87 -8 10 -15 40 -15 67 l0 47 -57 26 c-97 44 -117 52 -143
57 -32 7 -110 34 -132 47 -10 6 -28 10 -40 10 -13 0 -36 7 -51 15 -38 20 -118
28 -139 15z"></path>
<path d="M1622 3083 l3 -147 75 -14 c106 -20 146 -21 141 -2 -2 8 -6 38 -8 65
-4 46 -14 76 -49 148 -8 16 -14 35 -14 42 0 28 -51 55 -102 55 l-49 0 3 -147z"></path>
<path d="M2885 3212 c-59 -33 -72 -48 -99 -104 -15 -32 -31 -60 -36 -63 -14
-9 -23 -161 -11 -184 11 -19 20 -21 124 -22 110 0 349 -14 437 -25 37 -4 49
-2 68 16 12 12 20 25 18 29 -3 5 -6 82 -7 172 0 90 -5 171 -10 181 -9 16 -29
18 -232 17 -190 0 -226 -3 -252 -17z"></path>
<path d="M4618 2873 c12 -2 32 -2 45 0 12 2 2 4 -23 4 -25 0 -35 -2 -22 -4z"></path>
<path d="M4260 2850 c-18 -6 -5 -8 45 -8 48 -1 64 2 50 8 -25 11 -62 11 -95 0z"></path>
<path d="M3940 2821 c-35 -7 -35 -7 15 -13 59 -7 114 0 93 13 -15 10 -56 10
-108 0z"></path>
<path d="M2158 2813 c23 -2 59 -2 80 0 20 2 1 4 -43 4 -44 0 -61 -2 -37 -4z"></path>
<path d="M2545 2791 l-40 -6 49 -8 c65 -9 138 -9 154 2 28 17 -80 25 -163 12z"></path>
<path d="M3582 2793 c-12 -2 -20 -9 -17 -14 7 -10 94 -10 140 0 28 6 27 7 -19
14 -51 7 -65 7 -104 0z"></path>
<path d="M5288 2793 c-45 -5 -75 -38 -83 -92 -10 -63 -38 -142 -54 -150 -26
-12 -179 -5 -197 10 -11 9 -14 26 -12 58 2 45 2 46 -28 49 -17 2 -61 -4 -98
-12 -37 -9 -78 -16 -90 -16 -26 0 -56 -28 -56 -52 0 -9 -12 -42 -26 -74 -75
-169 -82 -178 -132 -185 -23 -3 -48 -11 -54 -17 -15 -15 -51 -15 -66 0 -7 7
-12 30 -12 52 -1 23 -7 52 -15 66 -8 14 -14 39 -15 57 0 17 -6 44 -14 60 -8
15 -18 42 -23 58 -8 30 -9 30 -85 33 -54 2 -84 -1 -100 -11 -13 -8 -36 -18
-51 -21 -29 -7 -117 -87 -117 -107 0 -6 -9 -22 -20 -36 -11 -14 -20 -32 -20
-40 0 -8 -7 -21 -15 -29 -8 -9 -15 -28 -15 -44 0 -16 -4 -32 -10 -35 -5 -3
-10 -14 -10 -23 0 -10 -9 -35 -20 -57 -11 -22 -20 -48 -20 -58 0 -45 -60 -127
-94 -127 -12 -1 -32 -7 -46 -15 -14 -8 -43 -14 -66 -15 -28 0 -47 -6 -59 -20
-12 -13 -31 -20 -56 -20 -21 0 -64 -7 -96 -15 -31 -8 -73 -15 -93 -15 -20 0
-41 -5 -47 -11 -12 -12 -78 -8 -233 15 -173 26 -233 37 -265 48 -16 6 -61 14
-100 18 -38 5 -86 13 -105 19 -19 6 -52 11 -73 11 -21 0 -52 7 -68 16 -17 8
-45 14 -62 12 l-32 -3 64 -52 c93 -75 148 -93 284 -93 72 0 126 -5 152 -15 22
-8 62 -14 88 -15 27 0 58 -5 70 -12 12 -6 58 -15 102 -19 77 -7 125 -15 245
-39 30 -7 91 -15 135 -19 44 -3 90 -12 102 -19 12 -6 33 -12 47 -12 17 0 42
-16 75 -48 27 -26 77 -63 112 -82 62 -33 67 -34 174 -33 105 0 113 2 174 34
82 43 171 131 205 202 14 31 26 60 26 64 0 11 57 41 95 49 17 4 35 10 40 14 6
4 26 11 45 15 19 4 40 11 45 15 6 4 26 11 45 14 19 4 49 13 65 20 47 21 97 37
138 46 21 4 44 13 50 19 6 6 23 11 37 11 14 0 35 7 46 15 21 16 70 20 78 6 10
-16 86 -51 111 -51 46 0 103 39 125 86 12 24 26 46 31 50 15 9 10 54 -6 54
-10 0 -15 -10 -15 -27 0 -43 -60 -93 -86 -73 -11 10 -11 16 -3 26 9 11 5 16
-15 24 -23 8 -26 15 -26 59 0 47 2 50 28 53 26 3 27 5 30 77 l3 73 -25 -6
c-15 -4 -26 -1 -29 7 -6 18 29 89 54 110 24 19 69 23 69 5 0 -6 8 -20 17 -30
15 -16 17 -38 15 -130 -1 -61 1 -115 4 -120 12 -19 24 17 24 72 0 31 5 61 11
67 11 11 9 73 -8 236 -8 75 -20 99 -48 95 -5 -1 -27 -3 -47 -5z m-1072 -414
c53 -24 144 -111 144 -138 0 -9 7 -26 15 -37 21 -28 21 -226 0 -244 -8 -7 -15
-19 -15 -27 0 -49 -121 -176 -188 -197 -34 -11 -134 -9 -162 3 -79 34 -131 97
-163 198 -29 90 -18 176 38 289 33 64 74 104 150 143 71 37 114 39 181 10z"></path>
<path d="M4048 2182 c-16 -10 -28 -22 -28 -28 0 -6 -7 -17 -15 -24 -10 -8 -15
-31 -15 -66 0 -48 4 -57 35 -89 40 -40 51 -42 98 -19 48 23 82 89 73 139 -9
48 -29 79 -62 93 -33 15 -53 14 -86 -6z"></path>
<path d="M4294 1985 c-3 -19 -10 -35 -14 -35 -5 0 -12 -9 -15 -21 -16 -50
-129 -129 -185 -129 -22 0 -40 -4 -40 -10 0 -12 77 -13 84 -1 3 5 21 12 40 15
35 7 126 93 126 120 0 8 7 19 15 26 16 14 21 70 5 70 -5 0 -12 -16 -16 -35z"></path>
<path d="M2900 2761 c-24 -7 -24 -7 9 -14 48 -10 209 -9 215 2 3 4 -29 11 -71
15 -89 7 -119 7 -153 -3z"></path>
<path d="M3290 2761 c-81 -7 -49 -21 50 -21 71 0 108 13 68 23 -12 4 -30 6
-38 5 -8 -1 -44 -4 -80 -7z"></path>
<path d="M1856 2624 c-20 -20 -20 -48 -1 -64 8 -7 15 -18 15 -26 0 -7 14 -33
30 -57 17 -25 30 -49 30 -54 0 -20 63 -83 82 -83 11 0 46 -6 77 -14 31 -8 89
-17 129 -20 40 -3 82 -11 92 -16 10 -6 43 -10 74 -10 30 0 67 -5 83 -11 24
-10 103 -23 291 -46 95 -12 172 78 191 224 8 64 1 73 -57 73 -24 0 -52 5 -64
11 -11 6 -70 15 -131 19 -193 15 -410 39 -452 49 -22 6 -72 11 -111 11 -39 0
-93 7 -120 15 -65 20 -138 19 -158 -1z"></path>
<path d="M5300 2320 c0 -5 5 -10 11 -10 5 0 7 5 4 10 -3 6 -8 10 -11 10 -2 0
-4 -4 -4 -10z"></path>
</g>
</svg>